<svg width="30" height="30" viewBox="0 0 30 30" fill="none" xmlns="http://www.w3.org/2000/svg">
<g clip-path="url(#clip0)">
<path d="M11.6316 9H5.1842V11.9474H11.6316V9Z" fill="#102542"/>
<path d="M11.6316 12.6842H5.1842V23H11.6316V12.6842Z" fill="#102542"/>
<path d="M18.8158 16.3685H12.3685V23H18.8158V16.3685Z" fill="#102542"/>
<path d="M18.8158 9H12.3685V15.6316H18.8158V9Z" fill="#102542"/>
</g>
<path d="M24.3536 8.64645C24.1583 8.45118 23.8417 8.45118 23.6464 8.64645L20.4645 11.8284C20.2692 12.0237 20.2692 12.3403 20.4645 12.5355C20.6597 12.7308 20.9763 12.7308 21.1716 12.5355L24 9.70711L26.8284 12.5355C27.0237 12.7308 27.3403 12.7308 27.5355 12.5355C27.7308 12.3403 27.7308 12.0237 27.5355 11.8284L24.3536 8.64645ZM24.5 23V9H23.5V23H24.5Z" fill="#102542"/>
<defs>
<clipPath id="clip0">
<rect width="14" height="14" fill="white" transform="translate(5 9)"/>
</clipPath>
</defs>
</svg>
