<svg width="17" height="17" viewBox="0 0 19 10" fill="none" xmlns="http://www.w3.org/2000/svg">
<path d="M0.952464 0.502368C0.677573 0.528624 0.476015 0.772752 0.502271 1.04764L0.930145 5.52726C0.956401 5.80215 1.20053 6.00371 1.47542 5.97745C1.75031 5.95119 1.95187 5.70706 1.92561 5.43217L1.54528 1.4503L5.52716 1.06996C5.80205 1.04371 6.00361 0.799579 5.97735 0.524687C5.9511 0.249796 5.70697 0.0482375 5.43208 0.0744941L0.952464 0.502368ZM6.7163 5.07122L1.31834 0.614534L0.681671 1.38567L6.07963 5.84236L6.7163 5.07122Z" fill="#787878"/>
<path d="M16.4153 13.9825C16.6905 13.9602 16.8956 13.719 16.8733 13.4438L16.5098 8.95849C16.4875 8.68325 16.2463 8.47821 15.971 8.50052C15.6958 8.52282 15.4907 8.76403 15.513 9.03927L15.8362 13.0262L11.8492 13.3493C11.574 13.3716 11.3689 13.6128 11.3913 13.8881C11.4136 14.1633 11.6548 14.3684 11.93 14.346L16.4153 13.9825ZM10.7177 9.3314L16.0511 13.8651L16.6987 13.1032L11.3653 8.56948L10.7177 9.3314Z" fill="#787878"/>
</svg>
