<svg id="Layer" fill="#f87060"  enable-background="new 0 0 512 512" height="512" viewBox="0 0 25 22" width="512" xmlns="http://www.w3.org/2000/svg">
<path d="m0.99994 0c-0.55 0-0.99994 0.44993-0.99994 0.99993v4.0003c0 0.55 0.44994 0.99994 0.99994 0.99994h0.99994v9.9999h-0.99994c-0.55 0-0.99994 0.44994-0.99994 0.99994v3.9998c0 0.55 0.44994 1.0004 0.99994 1.0004h3.9998c0.55 0 0.99994-0.45045 0.99994-1.0004v-0.99994h10v0.99994c0 0.55 0.44993 1.0004 0.99993 1.0004h3.9998c0.55 0 0.99994-0.45045 0.99994-1.0004v-3.9998c0-0.55-0.44994-0.99994-0.99994-0.99994h-0.99994v-9.9999h0.99994c0.55 0 0.99994-0.44994 0.99994-0.99994v-4.0003c0-0.55-0.44994-0.99993-0.99994-0.99993h-3.9998c-0.55 0-0.99994 0.44993-0.99993 0.99993v0.99994h-10v-0.99994c0-0.55-0.44994-0.99993-0.99994-0.99993zm0.99994 1.9999h1.9999v1.9999h-1.9999zm16 0h1.9999v1.9999h-1.9999zm-12 1.9999h10v1.0005c0 0.55 0.44993 0.99994 0.99993 0.99994h0.99994v9.9999h-0.99994c-0.55 0-0.99994 0.44994-0.99993 0.99994v0.99994h-10v-0.99994c0-0.55-0.44994-0.99994-0.99994-0.99994h-0.99994v-9.9999h0.99994c0.55 0 0.99994-0.44994 0.99994-0.99994zm4.469 5.041c-9e-3 1e-3 -0.019 1e-3 -0.0284 2e-3 -2.7e-4 7.9e-4 -1.4e-4 1e-3 -5.3e-4 2e-3 9e-3 -2e-3 0.0206-2e-3 0.0289-4e-3zm-2.8722 5.7924c0.0013 0.0201 0.0026 0.0403 0.0041 0.0625 0.0097 6e-3 0.01847 0.0123 0.02842 0.0176-7.94e-4 -0.0274-0.0013-0.0519-0.0021-0.0754-0.01167-1e-3 -0.0182-3e-3 -0.03049-5e-3zm-5.5966 3.1667h1.9999v1.9999h-1.9999zm16 0h1.9999v1.9999h-1.9999z" />
</svg>